<svg xmlns="http://www.w3.org/2000/svg" xmlns:xlink="http://www.w3.org/1999/xlink" width="500" zoomAndPan="magnify" viewBox="0 0 375 225" height="300" preserveAspectRatio="xMidYMid meet" version="1.0"><defs><g/><clipPath id="b97e95512a"><path d="M 25.273438 2.9375 L 174.523438 2.9375 L 174.523438 221.9375 L 25.273438 221.9375 Z M 25.273438 2.9375 " clip-rule="nonzero"/></clipPath></defs><g clip-path="url(#b97e95512a)"><path fill="#000000" d="M 120.554688 2.96875 L 148.648438 2.96875 C 151.859375 2.96875 154.460938 5.566406 154.476562 8.777344 C 154.476562 8.796875 154.476562 8.8125 154.476562 8.828125 L 155.804688 27.867188 C 155.835938 28.277344 156.125 28.625 156.519531 28.726562 C 162.578125 30.3125 168.371094 32.535156 173.835938 35.332031 C 173.839844 35.332031 173.839844 35.332031 173.84375 35.335938 C 174.367188 35.605469 174.515625 36.285156 174.160156 36.75 L 160.855469 54.25 C 160.589844 54.601562 160.117188 54.726562 159.714844 54.550781 C 157.445312 53.558594 155.105469 52.703125 152.703125 51.980469 C 149.632812 51.058594 146.460938 50.367188 143.210938 49.921875 C 141.261719 49.65625 139.289062 49.476562 137.289062 49.394531 C 136.398438 49.355469 135.5 49.335938 134.601562 49.335938 C 132.871094 49.335938 131.160156 49.40625 129.464844 49.542969 C 111.015625 51.03125 94.808594 60.480469 84.273438 74.457031 C 76.304688 85.023438 71.582031 98.179688 71.582031 112.4375 C 71.582031 147.292969 99.796875 175.542969 134.601562 175.542969 C 143.53125 175.542969 152.023438 173.683594 159.71875 170.328125 C 160.121094 170.15625 160.589844 170.28125 160.855469 170.628906 L 162.105469 172.273438 L 174.152344 188.117188 C 174.511719 188.589844 174.359375 189.273438 173.835938 189.546875 C 173.769531 189.578125 173.707031 189.613281 173.644531 189.644531 C 173.558594 189.691406 173.472656 189.734375 173.386719 189.777344 C 170.648438 191.15625 167.824219 192.394531 164.925781 193.480469 C 162.1875 194.507812 159.382812 195.402344 156.519531 196.152344 C 156.125 196.253906 155.835938 196.601562 155.804688 197.011719 L 154.476562 216.046875 C 154.476562 216.066406 154.476562 216.082031 154.476562 216.101562 C 154.460938 219.308594 151.859375 221.910156 148.648438 221.910156 L 120.554688 221.910156 C 117.34375 221.910156 114.738281 219.308594 114.726562 216.101562 C 114.726562 216.082031 114.722656 216.066406 114.722656 216.046875 L 113.394531 197.011719 C 113.367188 196.601562 113.082031 196.253906 112.679688 196.152344 C 104.980469 194.132812 97.699219 191.082031 90.992188 187.148438 C 90.636719 186.941406 90.191406 186.980469 89.878906 187.25 L 75.492188 199.777344 C 75.476562 199.789062 75.464844 199.796875 75.453125 199.8125 C 73.175781 202.074219 69.503906 202.066406 67.234375 199.792969 L 55.125 187.667969 L 47.363281 179.898438 C 45.09375 177.628906 45.089844 173.945312 47.347656 171.667969 C 47.359375 171.652344 47.371094 171.640625 47.378906 171.628906 L 59.890625 157.21875 C 60.160156 156.910156 60.199219 156.460938 59.992188 156.105469 C 56.0625 149.390625 53.015625 142.101562 51 134.390625 C 50.898438 133.992188 50.554688 133.699219 50.140625 133.671875 L 31.128906 132.34375 C 31.113281 132.339844 31.097656 132.339844 31.082031 132.339844 C 27.871094 132.328125 25.277344 129.722656 25.277344 126.507812 L 25.277344 98.371094 C 25.277344 95.15625 27.871094 92.550781 31.082031 92.535156 C 31.097656 92.535156 31.113281 92.535156 31.128906 92.535156 L 50.140625 91.207031 C 50.554688 91.175781 50.898438 90.886719 51 90.488281 C 53.015625 82.777344 56.0625 75.488281 59.992188 68.769531 C 60.199219 68.417969 60.160156 67.96875 59.890625 67.660156 L 57.78125 65.226562 L 47.378906 53.25 C 47.371094 53.234375 47.359375 53.222656 47.347656 53.210938 C 45.089844 50.933594 45.09375 47.25 47.363281 44.980469 L 55.125 37.210938 L 67.234375 25.085938 C 69.503906 22.8125 73.175781 22.804688 75.453125 25.066406 C 75.464844 25.078125 75.476562 25.089844 75.492188 25.101562 L 89.878906 37.628906 C 90.191406 37.898438 90.636719 37.9375 90.992188 37.730469 C 96.785156 34.332031 103.007812 31.589844 109.558594 29.609375 C 110.59375 29.296875 111.632812 29 112.679688 28.726562 C 113.082031 28.625 113.367188 28.277344 113.394531 27.867188 L 113.59375 25.046875 L 113.757812 22.691406 L 114.25 15.636719 L 114.722656 8.828125 C 114.722656 8.8125 114.726562 8.796875 114.726562 8.777344 C 114.738281 5.566406 117.34375 2.96875 120.554688 2.96875 " fill-opacity="1" fill-rule="nonzero"/></g><g fill="#000000" fill-opacity="1"><g transform="translate(94.609208, 139.179082)"><g><path d="M 33.164062 -28.984375 L 15.492188 -28.984375 C 14.609375 -28.984375 13.492188 -29.335938 13.492188 -32.222656 L 13.492188 -36.582031 C 13.492188 -37.644531 13.667969 -38.46875 13.960938 -39.058594 C 14.195312 -39.410156 14.550781 -39.824219 15.550781 -39.824219 L 39.527344 -39.824219 C 40 -39.824219 41.175781 -40 41.175781 -41.824219 L 41.175781 -46.539062 C 41.175781 -48.363281 40 -48.542969 39.527344 -48.542969 L 14.136719 -48.542969 C 10.898438 -48.542969 8.542969 -47.480469 7.011719 -45.300781 C 5.480469 -43.179688 4.710938 -40.351562 4.710938 -36.9375 L 4.710938 -32.460938 C 4.710938 -28.394531 5.539062 -25.09375 7.011719 -23.035156 C 8.835938 -20.617188 11.546875 -20.265625 14.019531 -20.265625 L 31.691406 -20.265625 C 32.578125 -20.265625 33.753906 -19.910156 33.753906 -17.023438 L 33.753906 -11.957031 C 33.753906 -10.898438 33.578125 -10.074219 33.226562 -9.484375 C 32.988281 -9.132812 32.636719 -8.71875 31.632812 -8.71875 L 6.480469 -8.71875 C 5.949219 -8.71875 4.773438 -8.542969 4.773438 -6.714844 L 4.773438 -2.003906 C 4.773438 -0.175781 5.949219 0 6.480469 0 L 33.046875 0 C 36.289062 0 38.703125 -1.121094 40.234375 -3.300781 C 41.707031 -5.417969 42.472656 -8.1875 42.472656 -11.605469 L 42.472656 -16.789062 C 42.472656 -20.617188 41.707031 -23.621094 40.175781 -25.742188 C 38.585938 -27.863281 36.230469 -28.984375 33.164062 -28.984375 Z M 33.164062 -28.984375 "/></g></g></g><g fill="#000000" fill-opacity="1"><g transform="translate(144.736056, 139.179082)"><g><path d="M 45.417969 -48.542969 L 6.421875 -48.542969 C 5.890625 -48.542969 4.710938 -48.363281 4.710938 -46.539062 L 4.710938 -41.945312 C 4.710938 -40 5.890625 -39.824219 6.421875 -39.824219 L 21.5625 -39.824219 L 21.5625 -2.003906 C 21.5625 -0.175781 22.738281 0 23.210938 0 L 28.628906 0 C 29.160156 0 30.28125 -0.175781 30.28125 -2.003906 L 30.28125 -39.824219 L 45.417969 -39.824219 C 45.949219 -39.824219 47.128906 -40 47.128906 -41.945312 L 47.128906 -46.539062 C 47.128906 -48.363281 45.949219 -48.542969 45.417969 -48.542969 Z M 45.417969 -48.542969 "/></g></g></g><g fill="#000000" fill-opacity="1"><g transform="translate(199.516275, 139.179082)"><g><path d="M 40.117188 -10.542969 L 19.382812 -10.542969 C 18.144531 -10.542969 17.144531 -10.722656 16.316406 -10.957031 C 15.550781 -11.25 15.023438 -11.664062 14.550781 -12.253906 C 14.078125 -12.902344 13.726562 -13.785156 13.550781 -14.902344 C 13.492188 -15.199219 13.492188 -15.609375 13.429688 -15.90625 C 13.429688 -15.90625 13.492188 -20.148438 13.550781 -20.148438 L 39.882812 -20.148438 C 40.351562 -20.148438 41.53125 -20.382812 41.53125 -22.207031 L 41.53125 -26.863281 C 41.53125 -28.6875 40.351562 -28.867188 39.882812 -28.867188 L 9.484375 -28.808594 C 7.777344 -28.6875 6.304688 -27.804688 5.480469 -26.332031 C 5.183594 -25.859375 4.949219 -25.390625 4.832031 -24.859375 L 4.710938 -17.4375 L 4.710938 -17.144531 C 4.773438 -14.375 5.066406 -12.015625 5.480469 -10.074219 C 6.007812 -7.71875 6.890625 -5.773438 8.011719 -4.300781 C 9.191406 -2.769531 10.722656 -1.707031 12.605469 -1.058594 C 14.433594 -0.351562 16.613281 -0.0585938 19.203125 -0.0585938 L 40.117188 -0.0585938 C 40.648438 -0.0585938 41.824219 -0.234375 41.824219 -2.0625 L 41.824219 -8.542969 C 41.824219 -10.367188 40.648438 -10.542969 40.117188 -10.542969 Z M 40.175781 -48.660156 L 6.304688 -48.660156 C 5.832031 -48.660156 4.710938 -48.421875 4.710938 -46.539062 L 4.710938 -41.945312 C 4.710938 -40.117188 5.832031 -39.941406 6.304688 -39.941406 L 40.175781 -39.882812 C 40.648438 -39.882812 41.824219 -40.117188 41.824219 -41.945312 L 41.824219 -46.597656 C 41.824219 -48.421875 40.648438 -48.660156 40.175781 -48.660156 Z M 40.175781 -48.660156 "/></g></g></g><g fill="#000000" fill-opacity="1"><g transform="translate(248.995195, 139.179082)"><g><path d="M 40.117188 -10.542969 L 19.382812 -10.542969 C 18.144531 -10.542969 17.144531 -10.722656 16.316406 -10.957031 C 15.550781 -11.25 15.023438 -11.664062 14.550781 -12.253906 C 14.078125 -12.902344 13.726562 -13.785156 13.550781 -14.902344 C 13.492188 -15.199219 13.492188 -15.609375 13.429688 -15.90625 C 13.429688 -15.90625 13.492188 -20.148438 13.550781 -20.148438 L 39.882812 -20.148438 C 40.351562 -20.148438 41.53125 -20.382812 41.53125 -22.207031 L 41.53125 -26.863281 C 41.53125 -28.6875 40.351562 -28.867188 39.882812 -28.867188 L 9.484375 -28.808594 C 7.777344 -28.6875 6.304688 -27.804688 5.480469 -26.332031 C 5.183594 -25.859375 4.949219 -25.390625 4.832031 -24.859375 L 4.710938 -17.4375 L 4.710938 -17.144531 C 4.773438 -14.375 5.066406 -12.015625 5.480469 -10.074219 C 6.007812 -7.71875 6.890625 -5.773438 8.011719 -4.300781 C 9.191406 -2.769531 10.722656 -1.707031 12.605469 -1.058594 C 14.433594 -0.351562 16.613281 -0.0585938 19.203125 -0.0585938 L 40.117188 -0.0585938 C 40.648438 -0.0585938 41.824219 -0.234375 41.824219 -2.0625 L 41.824219 -8.542969 C 41.824219 -10.367188 40.648438 -10.542969 40.117188 -10.542969 Z M 40.175781 -48.660156 L 6.304688 -48.660156 C 5.832031 -48.660156 4.710938 -48.421875 4.710938 -46.539062 L 4.710938 -41.945312 C 4.710938 -40.117188 5.832031 -39.941406 6.304688 -39.941406 L 40.175781 -39.882812 C 40.648438 -39.882812 41.824219 -40.117188 41.824219 -41.945312 L 41.824219 -46.597656 C 41.824219 -48.421875 40.648438 -48.660156 40.175781 -48.660156 Z M 40.175781 -48.660156 "/></g></g></g><g fill="#000000" fill-opacity="1"><g transform="translate(298.474106, 139.179082)"><g><path d="M 38.703125 -8.71875 L 19.558594 -8.71875 C 18.320312 -8.71875 17.320312 -8.835938 16.496094 -9.132812 C 15.789062 -9.367188 15.199219 -9.777344 14.785156 -10.425781 C 14.316406 -11.074219 13.960938 -11.957031 13.785156 -13.019531 C 13.550781 -14.195312 13.492188 -15.667969 13.492188 -17.4375 L 13.492188 -46.480469 C 13.492188 -48.363281 12.3125 -48.542969 11.839844 -48.542969 L 6.421875 -48.542969 C 5.890625 -48.542969 4.710938 -48.363281 4.710938 -46.480469 L 4.710938 -18.4375 C 4.710938 -15.140625 5.007812 -12.3125 5.539062 -10.015625 C 6.066406 -7.660156 6.890625 -5.714844 8.070312 -4.242188 C 9.25 -2.710938 10.78125 -1.589844 12.664062 -0.941406 C 14.433594 -0.292969 16.671875 0.0585938 19.261719 0.0585938 L 38.703125 0.0585938 C 39.234375 0.0585938 40.351562 -0.175781 40.351562 -2.003906 L 40.351562 -6.65625 C 40.351562 -8.484375 39.234375 -8.71875 38.703125 -8.71875 Z M 38.703125 -8.71875 "/></g></g></g><g fill="#000000" fill-opacity="1"><g transform="translate(192.437839, 171.869523)"><g><path d="M 8.394531 -7.335938 L 3.921875 -7.335938 C 3.699219 -7.335938 3.414062 -7.425781 3.414062 -8.15625 L 3.414062 -9.257812 C 3.414062 -9.527344 3.460938 -9.738281 3.535156 -9.886719 C 3.59375 -9.976562 3.683594 -10.078125 3.9375 -10.078125 L 10.003906 -10.078125 C 10.125 -10.078125 10.421875 -10.125 10.421875 -10.585938 L 10.421875 -11.777344 C 10.421875 -12.242188 10.125 -12.285156 10.003906 -12.285156 L 3.578125 -12.285156 C 2.757812 -12.285156 2.160156 -12.019531 1.773438 -11.464844 C 1.386719 -10.929688 1.191406 -10.214844 1.191406 -9.347656 L 1.191406 -8.214844 C 1.191406 -7.1875 1.402344 -6.351562 1.773438 -5.828125 C 2.238281 -5.21875 2.921875 -5.128906 3.546875 -5.128906 L 8.023438 -5.128906 C 8.246094 -5.128906 8.542969 -5.039062 8.542969 -4.308594 L 8.542969 -3.027344 C 8.542969 -2.757812 8.5 -2.550781 8.410156 -2.402344 C 8.351562 -2.3125 8.261719 -2.207031 8.007812 -2.207031 L 1.640625 -2.207031 C 1.507812 -2.207031 1.207031 -2.160156 1.207031 -1.699219 L 1.207031 -0.507812 C 1.207031 -0.0429688 1.507812 0 1.640625 0 L 8.363281 0 C 9.183594 0 9.796875 -0.285156 10.183594 -0.835938 C 10.554688 -1.371094 10.75 -2.074219 10.75 -2.9375 L 10.75 -4.25 C 10.75 -5.21875 10.554688 -5.980469 10.167969 -6.515625 C 9.765625 -7.050781 9.167969 -7.335938 8.394531 -7.335938 Z M 8.394531 -7.335938 "/></g></g></g><g fill="#000000" fill-opacity="1"><g transform="translate(205.119398, 171.869523)"><g><path d="M 11.496094 -12.285156 L 10.125 -12.285156 C 9.988281 -12.285156 9.707031 -12.242188 9.707031 -11.777344 L 9.707031 -4.429688 C 9.707031 -3.980469 9.675781 -3.59375 9.632812 -3.308594 C 9.585938 -3.027344 9.496094 -2.804688 9.394531 -2.640625 C 9.273438 -2.488281 9.140625 -2.386719 8.945312 -2.3125 C 8.753906 -2.25 8.484375 -2.207031 8.171875 -2.207031 L 4.949219 -2.207031 C 4.636719 -2.207031 4.367188 -2.25 4.175781 -2.3125 C 3.980469 -2.386719 3.847656 -2.488281 3.726562 -2.640625 C 3.625 -2.804688 3.535156 -3.027344 3.472656 -3.308594 C 3.429688 -3.59375 3.398438 -3.980469 3.398438 -4.429688 L 3.398438 -11.777344 C 3.398438 -12.242188 3.117188 -12.285156 2.980469 -12.285156 L 1.625 -12.285156 C 1.492188 -12.285156 1.191406 -12.242188 1.191406 -11.777344 L 1.191406 -4.667969 C 1.191406 -3.832031 1.253906 -3.117188 1.386719 -2.535156 C 1.519531 -1.9375 1.746094 -1.445312 2.042969 -1.074219 C 2.324219 -0.6875 2.730469 -0.417969 3.191406 -0.238281 C 3.652344 -0.0742188 4.21875 0 4.875 0 L 8.230469 0 C 8.886719 0 9.453125 -0.0742188 9.914062 -0.238281 C 10.390625 -0.417969 10.78125 -0.6875 11.078125 -1.074219 C 11.375 -1.445312 11.585938 -1.9375 11.71875 -2.535156 C 11.855469 -3.117188 11.914062 -3.832031 11.914062 -4.667969 L 11.914062 -11.777344 C 11.914062 -12.242188 11.628906 -12.285156 11.496094 -12.285156 Z M 11.496094 -12.285156 "/></g></g></g><g fill="#000000" fill-opacity="1"><g transform="translate(218.96331, 171.869523)"><g><path d="M 8.5 -12.285156 L 1.609375 -12.285156 C 1.492188 -12.285156 1.191406 -12.242188 1.191406 -11.765625 L 1.191406 -10.585938 C 1.191406 -10.125 1.492188 -10.078125 1.609375 -10.078125 L 8.109375 -10.078125 C 8.484375 -10.078125 8.753906 -9.976562 8.902344 -9.75 C 9.066406 -9.527344 9.140625 -9.167969 9.140625 -8.679688 C 9.140625 -8.1875 9.066406 -7.828125 8.902344 -7.605469 C 8.753906 -7.378906 8.484375 -7.277344 8.109375 -7.277344 L 1.609375 -7.277344 C 1.492188 -7.277344 1.191406 -7.230469 1.191406 -6.769531 L 1.191406 -0.507812 C 1.191406 -0.0429688 1.492188 0.015625 1.609375 0.015625 L 2.980469 0.015625 C 3.101562 0.015625 3.398438 -0.0429688 3.398438 -0.507812 L 3.398438 -5.070312 L 8.5 -5.085938 C 9.511719 -5.085938 10.242188 -5.398438 10.691406 -6.023438 C 11.136719 -6.648438 11.347656 -7.542969 11.347656 -8.722656 L 11.347656 -8.632812 C 11.347656 -9.824219 11.136719 -10.71875 10.691406 -11.332031 C 10.242188 -11.972656 9.511719 -12.285156 8.5 -12.285156 Z M 8.5 -12.285156 "/></g></g></g><g fill="#000000" fill-opacity="1"><g transform="translate(232.240945, 171.869523)"><g><path d="M 8.5 -12.285156 L 1.609375 -12.285156 C 1.492188 -12.285156 1.191406 -12.242188 1.191406 -11.765625 L 1.191406 -10.585938 C 1.191406 -10.125 1.492188 -10.078125 1.609375 -10.078125 L 8.109375 -10.078125 C 8.484375 -10.078125 8.753906 -9.976562 8.902344 -9.75 C 9.066406 -9.527344 9.140625 -9.167969 9.140625 -8.679688 C 9.140625 -8.1875 9.066406 -7.828125 8.902344 -7.605469 C 8.753906 -7.378906 8.484375 -7.277344 8.109375 -7.277344 L 1.609375 -7.277344 C 1.492188 -7.277344 1.191406 -7.230469 1.191406 -6.769531 L 1.191406 -0.507812 C 1.191406 -0.0429688 1.492188 0.015625 1.609375 0.015625 L 2.980469 0.015625 C 3.101562 0.015625 3.398438 -0.0429688 3.398438 -0.507812 L 3.398438 -5.070312 L 8.5 -5.085938 C 9.511719 -5.085938 10.242188 -5.398438 10.691406 -6.023438 C 11.136719 -6.648438 11.347656 -7.542969 11.347656 -8.722656 L 11.347656 -8.632812 C 11.347656 -9.824219 11.136719 -10.71875 10.691406 -11.332031 C 10.242188 -11.972656 9.511719 -12.285156 8.5 -12.285156 Z M 8.5 -12.285156 "/></g></g></g><g fill="#000000" fill-opacity="1"><g transform="translate(245.51858, 171.869523)"><g><path d="M 9.796875 -2.207031 L 4.949219 -2.207031 C 4.636719 -2.207031 4.382812 -2.238281 4.175781 -2.3125 C 3.996094 -2.371094 3.847656 -2.476562 3.742188 -2.640625 C 3.625 -2.804688 3.535156 -3.027344 3.488281 -3.296875 C 3.429688 -3.59375 3.414062 -3.964844 3.414062 -4.414062 L 3.414062 -11.765625 C 3.414062 -12.242188 3.117188 -12.285156 2.996094 -12.285156 L 1.625 -12.285156 C 1.492188 -12.285156 1.191406 -12.242188 1.191406 -11.765625 L 1.191406 -4.667969 C 1.191406 -3.832031 1.265625 -3.117188 1.402344 -2.535156 C 1.535156 -1.9375 1.746094 -1.445312 2.042969 -1.074219 C 2.339844 -0.6875 2.730469 -0.402344 3.207031 -0.238281 C 3.652344 -0.0742188 4.21875 0.015625 4.875 0.015625 L 9.796875 0.015625 C 9.929688 0.015625 10.214844 -0.0429688 10.214844 -0.507812 L 10.214844 -1.683594 C 10.214844 -2.148438 9.929688 -2.207031 9.796875 -2.207031 Z M 9.796875 -2.207031 "/></g></g></g><g fill="#000000" fill-opacity="1"><g transform="translate(257.66367, 171.869523)"><g><path d="M 2.980469 -12.285156 L 1.609375 -12.285156 C 1.492188 -12.285156 1.191406 -12.226562 1.191406 -11.765625 L 1.191406 -0.507812 C 1.191406 -0.0429688 1.492188 0.015625 1.609375 0.015625 L 2.980469 0.015625 C 3.101562 0.015625 3.398438 -0.0429688 3.398438 -0.507812 L 3.398438 -11.765625 C 3.398438 -12.226562 3.101562 -12.285156 2.980469 -12.285156 Z M 2.980469 -12.285156 "/></g></g></g><g fill="#000000" fill-opacity="1"><g transform="translate(262.998571, 171.869523)"><g><path d="M 10.152344 -2.667969 L 4.90625 -2.667969 C 4.59375 -2.667969 4.339844 -2.714844 4.128906 -2.773438 C 3.9375 -2.847656 3.800781 -2.953125 3.683594 -3.101562 C 3.5625 -3.265625 3.472656 -3.488281 3.429688 -3.773438 C 3.414062 -3.847656 3.414062 -3.953125 3.398438 -4.027344 C 3.398438 -4.027344 3.414062 -5.097656 3.429688 -5.097656 L 10.09375 -5.097656 C 10.214844 -5.097656 10.511719 -5.160156 10.511719 -5.621094 L 10.511719 -6.800781 C 10.511719 -7.261719 10.214844 -7.304688 10.09375 -7.304688 L 2.402344 -7.292969 C 1.96875 -7.261719 1.59375 -7.039062 1.386719 -6.664062 C 1.3125 -6.546875 1.253906 -6.425781 1.222656 -6.292969 L 1.191406 -4.414062 L 1.191406 -4.339844 C 1.207031 -3.636719 1.28125 -3.042969 1.386719 -2.550781 C 1.519531 -1.953125 1.746094 -1.460938 2.027344 -1.089844 C 2.324219 -0.699219 2.714844 -0.433594 3.191406 -0.269531 C 3.652344 -0.0898438 4.203125 -0.015625 4.859375 -0.015625 L 10.152344 -0.015625 C 10.289062 -0.015625 10.585938 -0.0585938 10.585938 -0.523438 L 10.585938 -2.160156 C 10.585938 -2.625 10.289062 -2.667969 10.152344 -2.667969 Z M 10.167969 -12.316406 L 1.59375 -12.316406 C 1.476562 -12.316406 1.191406 -12.257812 1.191406 -11.777344 L 1.191406 -10.617188 C 1.191406 -10.152344 1.476562 -10.109375 1.59375 -10.109375 L 10.167969 -10.09375 C 10.289062 -10.09375 10.585938 -10.152344 10.585938 -10.617188 L 10.585938 -11.792969 C 10.585938 -12.257812 10.289062 -12.316406 10.167969 -12.316406 Z M 10.167969 -12.316406 "/></g></g></g><g fill="#000000" fill-opacity="1"><g transform="translate(275.516205, 171.869523)"><g><path d="M 11.363281 -8.722656 C 11.363281 -8.707031 11.363281 -8.691406 11.363281 -8.679688 C 11.363281 -8.664062 11.363281 -8.648438 11.363281 -8.632812 Z M 11.644531 -0.640625 L 9.035156 -5.113281 C 9.765625 -5.203125 10.332031 -5.515625 10.707031 -6.023438 C 11.125 -6.636719 11.347656 -7.515625 11.363281 -8.679688 C 11.347656 -9.839844 11.125 -10.71875 10.707031 -11.332031 C 10.257812 -11.972656 9.511719 -12.285156 8.5 -12.285156 L 1.625 -12.285156 C 1.492188 -12.285156 1.191406 -12.242188 1.191406 -11.765625 L 1.191406 -10.585938 C 1.191406 -10.125 1.492188 -10.078125 1.625 -10.078125 L 8.109375 -10.078125 C 8.5 -10.078125 8.753906 -9.976562 8.902344 -9.75 C 9.066406 -9.527344 9.140625 -9.167969 9.140625 -8.679688 C 9.140625 -8.1875 9.066406 -7.828125 8.902344 -7.605469 C 8.753906 -7.378906 8.5 -7.277344 8.109375 -7.277344 L 1.625 -7.277344 C 1.492188 -7.277344 1.191406 -7.230469 1.191406 -6.769531 L 1.191406 -0.507812 C 1.191406 -0.0429688 1.492188 0.015625 1.625 0.015625 L 2.980469 0.015625 C 3.117188 0.015625 3.398438 -0.0429688 3.398438 -0.507812 L 3.398438 -5.070312 L 6.546875 -5.070312 L 9.246094 -0.285156 C 9.304688 -0.195312 9.347656 -0.121094 9.410156 -0.0742188 C 9.484375 -0.015625 9.585938 0.015625 9.722656 0.015625 L 11.363281 0.015625 C 11.539062 0.015625 11.675781 -0.105469 11.703125 -0.285156 C 11.71875 -0.433594 11.703125 -0.550781 11.644531 -0.640625 Z M 11.644531 -0.640625 "/></g></g></g></svg>